<svg width="568" height="470" viewBox="0 0 568 470" fill="none" xmlns="http://www.w3.org/2000/svg">
<path d="M0 0H568V470H0V0Z" fill="#9C9FB0"/>
<path d="M266.097 214.052C266.097 217.423 264.651 220.656 262.078 223.04C259.504 225.424 256.014 226.764 252.374 226.764C248.735 226.764 245.244 225.424 242.671 223.04C240.097 220.656 238.652 217.423 238.652 214.052C238.652 210.68 240.097 207.447 242.671 205.063C245.244 202.679 248.735 201.34 252.374 201.34C256.014 201.34 259.504 202.679 262.078 205.063C264.651 207.447 266.097 210.68 266.097 214.052Z" fill="#EFEFEF"/>
<path d="M229.503 175.914C224.65 175.914 219.996 177.7 216.565 180.878C213.134 184.057 211.206 188.368 211.206 192.863V277.609C211.206 282.104 213.134 286.416 216.565 289.594C219.996 292.773 224.65 294.558 229.503 294.558H339.285C344.138 294.558 348.792 292.773 352.223 289.594C355.655 286.416 357.582 282.104 357.582 277.609V192.863C357.582 188.368 355.655 184.057 352.223 180.878C348.792 177.7 344.138 175.914 339.285 175.914H229.503ZM339.285 184.389C341.712 184.389 344.039 185.282 345.754 186.871C347.47 188.46 348.434 190.616 348.434 192.863V247.948L313.88 231.448C313.022 231.05 312.051 230.912 311.103 231.053C310.156 231.195 309.281 231.609 308.601 232.236L274.66 263.677L250.325 248.66C249.447 248.118 248.393 247.874 247.342 247.97C246.292 248.066 245.309 248.495 244.562 249.185L220.355 269.135V192.863C220.355 190.616 221.318 188.46 223.034 186.871C224.75 185.282 227.077 184.389 229.503 184.389H339.285Z" fill="#EFEFEF"/>
</svg>
